M48
;Layer_Color=9474304
;FILE_FORMAT=2:5
INCH,LZ
;TYPE=PLATED
T1F00S00C0.01500
T2F00S00C0.02000
T3F00S00C0.05118
%
T01
X02695Y03605
Y03635
Y03665
Y03695
X02725
Y03665
Y03635
Y03605
X0274Y0356
X02785Y0355
X0283Y03695
Y03735
X0287
Y03695
X0295Y0372484
X0298Y03725
X0293Y03805
Y03835
X029
Y03805
X028
X0277
Y03835
X028
X0279Y0388
X0282
X0285
X0276
X0273
X027
X0267
X0264
X03025Y0359
T02
X03Y04
X03455Y0403
Y03945
T03
X02395Y03685
Y03885
X03655Y03875
Y03675
M30
