%FSLAX25Y25*%
%MOIN*%
G70*
G01*
G75*
G04 Layer_Color=65535*
%ADD10R,0.05512X0.13386*%
%ADD11R,0.03543X0.02756*%
%ADD12R,0.02756X0.03543*%
%ADD13R,0.03543X0.03150*%
%ADD14R,0.06693X0.04331*%
%ADD15R,0.10630X0.10039*%
%ADD16R,0.04331X0.06693*%
%ADD17O,0.03150X0.00984*%
%ADD18O,0.00984X0.03150*%
%ADD19R,0.06811X0.06811*%
%ADD20C,0.03000*%
%ADD21C,0.01000*%
%ADD22C,0.02000*%
%ADD23O,0.11811X0.07874*%
%ADD24C,0.03000*%
%ADD25C,0.02500*%
%ADD26C,0.00984*%
%ADD27C,0.00787*%
%ADD28C,0.00500*%
%ADD29C,0.00600*%
G36*
X278262Y408274D02*
X280029Y404500D01*
X278521D01*
X277346Y407044D01*
X276523Y405841D01*
Y404500D01*
X275172D01*
Y410374D01*
X276523D01*
Y407617D01*
X278354Y410374D01*
X279677D01*
X278262Y408274D01*
D02*
G37*
G36*
X286746Y390500D02*
X285034D01*
X284942Y391666D01*
X284322D01*
X284230Y390500D01*
X282500D01*
X283351Y396975D01*
X285774D01*
X286746Y390500D01*
D02*
G37*
G36*
X295097Y406711D02*
Y406702D01*
Y406674D01*
Y406628D01*
Y406563D01*
X295088Y406489D01*
Y406405D01*
X295069Y406211D01*
X295051Y405999D01*
X295013Y405777D01*
X294958Y405573D01*
X294930Y405471D01*
X294893Y405388D01*
X294884Y405370D01*
X294856Y405314D01*
X294801Y405240D01*
X294727Y405138D01*
X294625Y405027D01*
X294496Y404916D01*
X294329Y404796D01*
X294144Y404685D01*
X294135D01*
X294116Y404676D01*
X294089Y404657D01*
X294042Y404639D01*
X293996Y404620D01*
X293931Y404602D01*
X293848Y404574D01*
X293765Y404546D01*
X293672Y404519D01*
X293561Y404500D01*
X293450Y404472D01*
X293321Y404454D01*
X293053Y404417D01*
X292747Y404408D01*
X292608D01*
X292534Y404417D01*
X292451D01*
X292359Y404426D01*
X292266Y404435D01*
X292044Y404463D01*
X291822Y404509D01*
X291600Y404565D01*
X291397Y404648D01*
X291388D01*
X291378Y404657D01*
X291351Y404676D01*
X291314Y404694D01*
X291230Y404750D01*
X291119Y404833D01*
X290999Y404935D01*
X290869Y405055D01*
X290749Y405194D01*
X290648Y405360D01*
Y405370D01*
X290638Y405379D01*
X290629Y405407D01*
X290611Y405443D01*
X290592Y405499D01*
X290574Y405554D01*
X290546Y405619D01*
X290527Y405702D01*
X290509Y405795D01*
X290481Y405897D01*
X290462Y406008D01*
X290444Y406128D01*
X290425Y406257D01*
X290416Y406396D01*
X290407Y406554D01*
Y406711D01*
Y410374D01*
X291896D01*
Y406711D01*
Y406702D01*
Y406692D01*
Y406637D01*
Y406544D01*
X291905Y406442D01*
X291915Y406331D01*
X291924Y406211D01*
X291943Y406100D01*
X291970Y406008D01*
Y405999D01*
X291989Y405971D01*
X292007Y405934D01*
X292044Y405878D01*
X292091Y405823D01*
X292146Y405767D01*
X292211Y405712D01*
X292294Y405656D01*
X292303Y405647D01*
X292340Y405638D01*
X292387Y405619D01*
X292460Y405591D01*
X292544Y405564D01*
X292646Y405545D01*
X292757Y405536D01*
X292877Y405527D01*
X292941D01*
X293016Y405536D01*
X293099Y405545D01*
X293200Y405554D01*
X293302Y405582D01*
X293413Y405610D01*
X293506Y405647D01*
X293515Y405656D01*
X293543Y405675D01*
X293589Y405702D01*
X293644Y405739D01*
X293700Y405786D01*
X293756Y405851D01*
X293802Y405915D01*
X293839Y405989D01*
Y405999D01*
X293848Y406036D01*
X293866Y406082D01*
X293885Y406165D01*
X293894Y406267D01*
X293913Y406387D01*
X293922Y406535D01*
Y406711D01*
Y410374D01*
X295097D01*
Y406711D01*
D02*
G37*
G36*
X276916Y403448D02*
X276971Y403439D01*
X277110Y403420D01*
X277276Y403383D01*
X277462Y403337D01*
X277665Y403263D01*
X277869Y403170D01*
X278081Y403050D01*
X278294Y402902D01*
X278488Y402717D01*
X278590Y402606D01*
X278673Y402495D01*
X278766Y402365D01*
X278840Y402236D01*
X278914Y402088D01*
X278988Y401931D01*
X279043Y401755D01*
X279089Y401579D01*
X279136Y401376D01*
X279164Y401172D01*
X277720Y401089D01*
Y401108D01*
Y401145D01*
X277711Y401200D01*
X277702Y401283D01*
X277683Y401376D01*
X277656Y401487D01*
X277628Y401598D01*
X277582Y401718D01*
X277536Y401829D01*
X277471Y401940D01*
X277387Y402051D01*
X277295Y402143D01*
X277184Y402227D01*
X277064Y402282D01*
X276916Y402328D01*
X276749Y402338D01*
X276703D01*
X276647Y402328D01*
X276583Y402310D01*
X276500Y402282D01*
X276407Y402236D01*
X276314Y402180D01*
X276213Y402097D01*
X276111Y401996D01*
X276019Y401866D01*
X275926Y401709D01*
X275843Y401524D01*
X275778Y401302D01*
X275750Y401182D01*
X275723Y401052D01*
X275704Y400904D01*
X275686Y400756D01*
X275676Y400590D01*
Y400414D01*
Y400405D01*
Y400367D01*
Y400312D01*
X275686Y400238D01*
Y400145D01*
X275695Y400044D01*
X275704Y399933D01*
X275713Y399813D01*
X275750Y399563D01*
X275797Y399313D01*
X275834Y399202D01*
X275870Y399091D01*
X275917Y398998D01*
X275963Y398915D01*
X275981Y398897D01*
X276019Y398850D01*
X276083Y398795D01*
X276176Y398721D01*
X276296Y398647D01*
X276435Y398591D01*
X276601Y398545D01*
X276786Y398527D01*
X276823D01*
X276870Y398536D01*
X276925Y398545D01*
X276990Y398564D01*
X277064Y398582D01*
X277147Y398619D01*
X277239Y398665D01*
X277323Y398721D01*
X277415Y398795D01*
X277508Y398887D01*
X277591Y398998D01*
X277665Y399119D01*
X277730Y399267D01*
X277785Y399443D01*
X277832Y399637D01*
X279164Y399553D01*
Y399544D01*
X279154Y399507D01*
X279145Y399452D01*
X279136Y399378D01*
X279117Y399294D01*
X279089Y399193D01*
X279052Y399082D01*
X279015Y398961D01*
X278914Y398703D01*
X278849Y398564D01*
X278775Y398434D01*
X278692Y398305D01*
X278599Y398175D01*
X278498Y398064D01*
X278377Y397953D01*
X278368Y397944D01*
X278349Y397925D01*
X278312Y397907D01*
X278257Y397870D01*
X278192Y397824D01*
X278118Y397778D01*
X278035Y397731D01*
X277933Y397685D01*
X277822Y397629D01*
X277693Y397583D01*
X277563Y397537D01*
X277425Y397491D01*
X277267Y397454D01*
X277110Y397435D01*
X276943Y397417D01*
X276768Y397408D01*
X276712D01*
X276657Y397417D01*
X276573D01*
X276472Y397435D01*
X276361Y397454D01*
X276231Y397472D01*
X276093Y397509D01*
X275944Y397546D01*
X275797Y397602D01*
X275639Y397667D01*
X275473Y397741D01*
X275315Y397833D01*
X275167Y397944D01*
X275010Y398064D01*
X274871Y398203D01*
X274862Y398212D01*
X274844Y398240D01*
X274807Y398286D01*
X274761Y398351D01*
X274705Y398434D01*
X274640Y398536D01*
X274575Y398647D01*
X274511Y398786D01*
X274446Y398934D01*
X274381Y399100D01*
X274317Y399285D01*
X274261Y399480D01*
X274215Y399701D01*
X274178Y399923D01*
X274159Y400173D01*
X274150Y400432D01*
Y400451D01*
Y400488D01*
X274159Y400562D01*
Y400654D01*
X274168Y400765D01*
X274187Y400895D01*
X274205Y401043D01*
X274242Y401200D01*
X274279Y401367D01*
X274326Y401542D01*
X274381Y401727D01*
X274446Y401912D01*
X274529Y402088D01*
X274622Y402273D01*
X274733Y402439D01*
X274853Y402606D01*
X274862Y402615D01*
X274890Y402643D01*
X274927Y402689D01*
X274983Y402736D01*
X275057Y402800D01*
X275140Y402874D01*
X275241Y402948D01*
X275362Y403031D01*
X275491Y403115D01*
X275630Y403189D01*
X275787Y403263D01*
X275963Y403328D01*
X276148Y403383D01*
X276342Y403420D01*
X276555Y403448D01*
X276777Y403457D01*
X276870D01*
X276916Y403448D01*
D02*
G37*
G36*
X255590Y410448D02*
X255701Y410438D01*
X255840Y410411D01*
X255997Y410383D01*
X256173Y410337D01*
X256348Y410281D01*
X256543Y410207D01*
X256728Y410115D01*
X256913Y410004D01*
X257098Y409874D01*
X257264Y409717D01*
X257412Y409532D01*
X257542Y409310D01*
X257653Y409069D01*
X256478Y408681D01*
Y408690D01*
X256469Y408709D01*
X256450Y408746D01*
X256432Y408792D01*
X256358Y408903D01*
X256265Y409032D01*
X256201Y409097D01*
X256126Y409162D01*
X256043Y409218D01*
X255951Y409273D01*
X255849Y409319D01*
X255738Y409356D01*
X255609Y409375D01*
X255470Y409384D01*
X255396D01*
X255340Y409375D01*
X255285Y409366D01*
X255211Y409356D01*
X255063Y409319D01*
X254915Y409255D01*
X254841Y409208D01*
X254785Y409162D01*
X254730Y409097D01*
X254693Y409023D01*
X254665Y408940D01*
X254656Y408848D01*
Y408838D01*
Y408811D01*
X254665Y408774D01*
X254674Y408727D01*
X254693Y408672D01*
X254720Y408616D01*
X254757Y408552D01*
X254804Y408496D01*
X254813Y408487D01*
X254841Y408468D01*
X254878Y408440D01*
X254952Y408413D01*
X255044Y408366D01*
X255165Y408320D01*
X255312Y408283D01*
X255498Y408237D01*
X255507D01*
X255535Y408228D01*
X255581Y408218D01*
X255645Y408209D01*
X255719Y408191D01*
X255803Y408172D01*
X255997Y408126D01*
X256210Y408061D01*
X256432Y408006D01*
X256635Y407932D01*
X256728Y407904D01*
X256811Y407867D01*
X256820D01*
X256830Y407858D01*
X256885Y407830D01*
X256959Y407784D01*
X257051Y407719D01*
X257162Y407636D01*
X257283Y407534D01*
X257403Y407414D01*
X257514Y407266D01*
X257523Y407247D01*
X257560Y407192D01*
X257607Y407108D01*
X257662Y406997D01*
X257717Y406868D01*
X257764Y406711D01*
X257801Y406544D01*
X257810Y406359D01*
Y406350D01*
Y406322D01*
Y406285D01*
X257801Y406230D01*
X257791Y406156D01*
X257773Y406073D01*
X257754Y405989D01*
X257736Y405888D01*
X257662Y405675D01*
X257607Y405564D01*
X257551Y405443D01*
X257477Y405323D01*
X257394Y405212D01*
X257301Y405092D01*
X257190Y404981D01*
X257181Y404972D01*
X257162Y404953D01*
X257125Y404925D01*
X257079Y404888D01*
X257014Y404851D01*
X256931Y404796D01*
X256839Y404750D01*
X256737Y404694D01*
X256617Y404639D01*
X256478Y404593D01*
X256330Y404537D01*
X256164Y404500D01*
X255988Y404463D01*
X255793Y404435D01*
X255590Y404417D01*
X255368Y404408D01*
X255285D01*
X255220Y404417D01*
X255137D01*
X255053Y404426D01*
X254952Y404445D01*
X254841Y404463D01*
X254600Y404509D01*
X254341Y404583D01*
X254082Y404685D01*
X253953Y404740D01*
X253833Y404814D01*
X253823Y404824D01*
X253805Y404833D01*
X253777Y404861D01*
X253731Y404888D01*
X253675Y404935D01*
X253620Y404990D01*
X253555Y405046D01*
X253490Y405120D01*
X253416Y405203D01*
X253351Y405286D01*
X253277Y405388D01*
X253213Y405499D01*
X253148Y405619D01*
X253093Y405739D01*
X253046Y405878D01*
X253000Y406026D01*
X254276Y406322D01*
Y406313D01*
X254286Y406285D01*
X254304Y406248D01*
X254323Y406193D01*
X254360Y406137D01*
X254397Y406063D01*
X254443Y405989D01*
X254508Y405915D01*
X254582Y405841D01*
X254665Y405767D01*
X254757Y405693D01*
X254869Y405638D01*
X254998Y405582D01*
X255137Y405545D01*
X255294Y405517D01*
X255470Y405508D01*
X255544D01*
X255627Y405517D01*
X255738Y405527D01*
X255849Y405554D01*
X255969Y405582D01*
X256080Y405628D01*
X256173Y405684D01*
X256182Y405693D01*
X256210Y405721D01*
X256247Y405758D01*
X256293Y405804D01*
X256339Y405869D01*
X256376Y405943D01*
X256404Y406026D01*
X256413Y406119D01*
Y406128D01*
Y406165D01*
X256404Y406211D01*
X256385Y406267D01*
X256358Y406331D01*
X256321Y406396D01*
X256275Y406461D01*
X256201Y406517D01*
X256191Y406526D01*
X256154Y406544D01*
X256099Y406572D01*
X256015Y406609D01*
X255905Y406646D01*
X255766Y406692D01*
X255590Y406739D01*
X255386Y406785D01*
X255377D01*
X255340Y406794D01*
X255276Y406812D01*
X255202Y406831D01*
X255109Y406849D01*
X255007Y406877D01*
X254887Y406914D01*
X254767Y406951D01*
X254499Y407044D01*
X254230Y407146D01*
X254101Y407210D01*
X253980Y407275D01*
X253879Y407340D01*
X253777Y407414D01*
X253768Y407423D01*
X253759Y407432D01*
X253731Y407460D01*
X253703Y407488D01*
X253666Y407534D01*
X253629Y407580D01*
X253546Y407719D01*
X253453Y407886D01*
X253379Y408089D01*
X253324Y408320D01*
X253314Y408459D01*
X253305Y408598D01*
Y408607D01*
Y408635D01*
Y408672D01*
X253314Y408727D01*
X253324Y408792D01*
X253333Y408875D01*
X253351Y408958D01*
X253379Y409051D01*
X253444Y409264D01*
X253490Y409366D01*
X253546Y409477D01*
X253610Y409587D01*
X253684Y409698D01*
X253768Y409809D01*
X253870Y409911D01*
X253879Y409921D01*
X253897Y409939D01*
X253925Y409958D01*
X253971Y409995D01*
X254036Y410041D01*
X254101Y410087D01*
X254184Y410133D01*
X254276Y410189D01*
X254387Y410235D01*
X254499Y410281D01*
X254628Y410327D01*
X254767Y410374D01*
X254915Y410411D01*
X255072Y410429D01*
X255248Y410448D01*
X255423Y410457D01*
X255498D01*
X255590Y410448D01*
D02*
G37*
G36*
X298603D02*
X298686Y410438D01*
X298778Y410429D01*
X298889Y410411D01*
X299000Y410392D01*
X299250Y410318D01*
X299389Y410281D01*
X299518Y410226D01*
X299648Y410161D01*
X299777Y410087D01*
X299898Y410004D01*
X300018Y409902D01*
X300027Y409893D01*
X300045Y409874D01*
X300073Y409846D01*
X300110Y409800D01*
X300166Y409745D01*
X300212Y409680D01*
X300277Y409597D01*
X300332Y409514D01*
X300397Y409412D01*
X300462Y409301D01*
X300526Y409180D01*
X300582Y409051D01*
X300638Y408903D01*
X300684Y408755D01*
X300730Y408598D01*
X300758Y408431D01*
X299453Y408265D01*
Y408274D01*
X299444Y408311D01*
X299435Y408366D01*
X299416Y408431D01*
X299389Y408514D01*
X299352Y408607D01*
X299315Y408700D01*
X299269Y408801D01*
X299204Y408903D01*
X299130Y408995D01*
X299046Y409088D01*
X298954Y409171D01*
X298843Y409236D01*
X298723Y409292D01*
X298584Y409329D01*
X298436Y409338D01*
X298380D01*
X298343Y409329D01*
X298242Y409310D01*
X298122Y409273D01*
X297983Y409218D01*
X297835Y409125D01*
X297770Y409069D01*
X297705Y408995D01*
X297640Y408921D01*
X297585Y408829D01*
Y408820D01*
X297576Y408801D01*
X297557Y408774D01*
X297539Y408737D01*
X297520Y408681D01*
X297502Y408616D01*
X297474Y408542D01*
X297446Y408459D01*
X297418Y408357D01*
X297400Y408255D01*
X297372Y408135D01*
X297354Y408006D01*
X297335Y407867D01*
X297317Y407719D01*
X297307Y407552D01*
Y407386D01*
Y407377D01*
Y407349D01*
Y407303D01*
X297317Y407238D01*
Y407164D01*
X297326Y407071D01*
X297335Y406979D01*
X297344Y406877D01*
X297381Y406646D01*
X297437Y406415D01*
X297511Y406193D01*
X297557Y406091D01*
X297613Y405999D01*
Y405989D01*
X297631Y405980D01*
X297668Y405925D01*
X297742Y405851D01*
X297844Y405767D01*
X297964Y405675D01*
X298122Y405601D01*
X298297Y405545D01*
X298399Y405536D01*
X298501Y405527D01*
X298566D01*
X298630Y405536D01*
X298723Y405554D01*
X298825Y405582D01*
X298936Y405628D01*
X299046Y405684D01*
X299158Y405758D01*
X299167Y405767D01*
X299204Y405804D01*
X299250Y405860D01*
X299306Y405943D01*
X299361Y406054D01*
X299407Y406183D01*
X299444Y406350D01*
X299453Y406535D01*
X298343D01*
Y407636D01*
X300758D01*
Y404500D01*
X300129D01*
Y404519D01*
X300119Y404556D01*
X300101Y404620D01*
X300073Y404704D01*
X300045Y404805D01*
X300009Y404916D01*
X299925Y405166D01*
X299916Y405157D01*
X299898Y405138D01*
X299861Y405092D01*
X299814Y405046D01*
X299749Y404990D01*
X299675Y404925D01*
X299592Y404861D01*
X299490Y404787D01*
X299379Y404713D01*
X299259Y404648D01*
X299130Y404583D01*
X298982Y404528D01*
X298834Y404482D01*
X298676Y404445D01*
X298501Y404417D01*
X298325Y404408D01*
X298279D01*
X298214Y404417D01*
X298140D01*
X298038Y404435D01*
X297927Y404454D01*
X297807Y404472D01*
X297668Y404509D01*
X297530Y404556D01*
X297381Y404611D01*
X297234Y404676D01*
X297085Y404750D01*
X296937Y404842D01*
X296799Y404953D01*
X296669Y405083D01*
X296540Y405222D01*
X296531Y405231D01*
X296512Y405259D01*
X296484Y405305D01*
X296438Y405370D01*
X296392Y405453D01*
X296336Y405554D01*
X296281Y405665D01*
X296225Y405795D01*
X296161Y405943D01*
X296105Y406100D01*
X296049Y406276D01*
X296003Y406470D01*
X295957Y406665D01*
X295929Y406886D01*
X295911Y407108D01*
X295901Y407349D01*
Y407368D01*
Y407414D01*
X295911Y407488D01*
Y407580D01*
X295920Y407700D01*
X295938Y407839D01*
X295957Y407987D01*
X295985Y408154D01*
X296022Y408329D01*
X296068Y408514D01*
X296124Y408700D01*
X296188Y408884D01*
X296262Y409069D01*
X296355Y409255D01*
X296457Y409430D01*
X296577Y409597D01*
X296586Y409606D01*
X296604Y409634D01*
X296651Y409680D01*
X296706Y409735D01*
X296771Y409800D01*
X296854Y409865D01*
X296956Y409948D01*
X297067Y410032D01*
X297197Y410106D01*
X297335Y410189D01*
X297483Y410253D01*
X297650Y410327D01*
X297826Y410374D01*
X298020Y410420D01*
X298223Y410448D01*
X298436Y410457D01*
X298529D01*
X298603Y410448D01*
D02*
G37*
G36*
X265686Y403448D02*
X265742Y403439D01*
X265880Y403420D01*
X266047Y403383D01*
X266232Y403337D01*
X266436Y403263D01*
X266639Y403170D01*
X266852Y403050D01*
X267064Y402902D01*
X267259Y402717D01*
X267360Y402606D01*
X267444Y402495D01*
X267536Y402365D01*
X267610Y402236D01*
X267684Y402088D01*
X267758Y401931D01*
X267814Y401755D01*
X267860Y401579D01*
X267906Y401376D01*
X267934Y401172D01*
X266491Y401089D01*
Y401108D01*
Y401145D01*
X266482Y401200D01*
X266473Y401283D01*
X266454Y401376D01*
X266426Y401487D01*
X266399Y401598D01*
X266352Y401718D01*
X266306Y401829D01*
X266241Y401940D01*
X266158Y402051D01*
X266066Y402143D01*
X265954Y402227D01*
X265834Y402282D01*
X265686Y402328D01*
X265520Y402338D01*
X265474D01*
X265418Y402328D01*
X265353Y402310D01*
X265270Y402282D01*
X265177Y402236D01*
X265085Y402180D01*
X264983Y402097D01*
X264881Y401996D01*
X264789Y401866D01*
X264697Y401709D01*
X264613Y401524D01*
X264548Y401302D01*
X264521Y401182D01*
X264493Y401052D01*
X264475Y400904D01*
X264456Y400756D01*
X264447Y400590D01*
Y400414D01*
Y400405D01*
Y400367D01*
Y400312D01*
X264456Y400238D01*
Y400145D01*
X264465Y400044D01*
X264475Y399933D01*
X264484Y399813D01*
X264521Y399563D01*
X264567Y399313D01*
X264604Y399202D01*
X264641Y399091D01*
X264687Y398998D01*
X264734Y398915D01*
X264752Y398897D01*
X264789Y398850D01*
X264854Y398795D01*
X264946Y398721D01*
X265067Y398647D01*
X265205Y398591D01*
X265372Y398545D01*
X265557Y398527D01*
X265594D01*
X265640Y398536D01*
X265696Y398545D01*
X265760Y398564D01*
X265834Y398582D01*
X265917Y398619D01*
X266010Y398665D01*
X266093Y398721D01*
X266186Y398795D01*
X266278Y398887D01*
X266361Y398998D01*
X266436Y399119D01*
X266500Y399267D01*
X266556Y399443D01*
X266602Y399637D01*
X267934Y399553D01*
Y399544D01*
X267925Y399507D01*
X267916Y399452D01*
X267906Y399378D01*
X267888Y399294D01*
X267860Y399193D01*
X267823Y399082D01*
X267786Y398961D01*
X267684Y398703D01*
X267619Y398564D01*
X267546Y398434D01*
X267462Y398305D01*
X267370Y398175D01*
X267268Y398064D01*
X267148Y397953D01*
X267139Y397944D01*
X267120Y397925D01*
X267083Y397907D01*
X267027Y397870D01*
X266963Y397824D01*
X266889Y397778D01*
X266806Y397731D01*
X266704Y397685D01*
X266593Y397629D01*
X266463Y397583D01*
X266334Y397537D01*
X266195Y397491D01*
X266038Y397454D01*
X265880Y397435D01*
X265714Y397417D01*
X265538Y397408D01*
X265483D01*
X265427Y397417D01*
X265344D01*
X265242Y397435D01*
X265131Y397454D01*
X265002Y397472D01*
X264863Y397509D01*
X264715Y397546D01*
X264567Y397602D01*
X264410Y397667D01*
X264243Y397741D01*
X264086Y397833D01*
X263938Y397944D01*
X263781Y398064D01*
X263642Y398203D01*
X263633Y398212D01*
X263614Y398240D01*
X263577Y398286D01*
X263531Y398351D01*
X263475Y398434D01*
X263411Y398536D01*
X263346Y398647D01*
X263281Y398786D01*
X263216Y398934D01*
X263152Y399100D01*
X263087Y399285D01*
X263032Y399480D01*
X262985Y399701D01*
X262948Y399923D01*
X262930Y400173D01*
X262920Y400432D01*
Y400451D01*
Y400488D01*
X262930Y400562D01*
Y400654D01*
X262939Y400765D01*
X262958Y400895D01*
X262976Y401043D01*
X263013Y401200D01*
X263050Y401367D01*
X263096Y401542D01*
X263152Y401727D01*
X263216Y401912D01*
X263300Y402088D01*
X263392Y402273D01*
X263503Y402439D01*
X263623Y402606D01*
X263633Y402615D01*
X263661Y402643D01*
X263698Y402689D01*
X263753Y402736D01*
X263827Y402800D01*
X263910Y402874D01*
X264012Y402948D01*
X264132Y403031D01*
X264262Y403115D01*
X264401Y403189D01*
X264558Y403263D01*
X264734Y403328D01*
X264918Y403383D01*
X265113Y403420D01*
X265325Y403448D01*
X265547Y403457D01*
X265640D01*
X265686Y403448D01*
D02*
G37*
G36*
X261205Y410364D02*
X261279D01*
X261455Y410355D01*
X261639Y410337D01*
X261834Y410300D01*
X262028Y410263D01*
X262194Y410207D01*
X262204D01*
X262213Y410198D01*
X262268Y410180D01*
X262343Y410133D01*
X262444Y410069D01*
X262555Y409985D01*
X262685Y409883D01*
X262814Y409763D01*
X262934Y409615D01*
Y409606D01*
X262953Y409597D01*
X262962Y409569D01*
X262990Y409541D01*
X263036Y409449D01*
X263101Y409329D01*
X263157Y409171D01*
X263212Y408995D01*
X263249Y408792D01*
X263258Y408570D01*
Y408561D01*
Y408552D01*
Y408496D01*
X263249Y408413D01*
X263240Y408302D01*
X263212Y408172D01*
X263184Y408024D01*
X263138Y407876D01*
X263083Y407719D01*
X263073Y407700D01*
X263055Y407654D01*
X263008Y407571D01*
X262953Y407479D01*
X262888Y407377D01*
X262805Y407266D01*
X262703Y407164D01*
X262592Y407062D01*
X262583Y407053D01*
X262537Y407025D01*
X262481Y406988D01*
X262407Y406942D01*
X262315Y406886D01*
X262213Y406840D01*
X262102Y406794D01*
X261991Y406757D01*
X261982D01*
X261935Y406748D01*
X261861Y406739D01*
X261769Y406720D01*
X261639Y406711D01*
X261473Y406692D01*
X261288Y406683D01*
X260104D01*
Y404500D01*
X258707D01*
Y410374D01*
X261140D01*
X261205Y410364D01*
D02*
G37*
G36*
X293026Y396966D02*
X293156D01*
X293424Y396956D01*
X293692Y396938D01*
X293813Y396929D01*
X293933Y396910D01*
X294035Y396901D01*
X294118Y396883D01*
X294137D01*
X294192Y396864D01*
X294266Y396836D01*
X294368Y396790D01*
X294479Y396725D01*
X294590Y396642D01*
X294701Y396540D01*
X294812Y396411D01*
X294821Y396392D01*
X294840Y396374D01*
X294858Y396337D01*
X294877Y396300D01*
X294895Y396244D01*
X294923Y396189D01*
X294951Y396115D01*
X294969Y396041D01*
X294997Y395948D01*
X295015Y395856D01*
X295043Y395745D01*
X295052Y395624D01*
X295071Y395495D01*
X295080Y395356D01*
Y395208D01*
Y395199D01*
Y395171D01*
Y395134D01*
Y395088D01*
X295071Y395023D01*
Y394958D01*
X295052Y394801D01*
X295034Y394625D01*
X294997Y394459D01*
X294951Y394311D01*
X294923Y394246D01*
X294886Y394191D01*
X294877Y394181D01*
X294849Y394154D01*
X294802Y394108D01*
X294728Y394052D01*
X294627Y393997D01*
X294497Y393950D01*
X294340Y393904D01*
X294146Y393876D01*
X294155D01*
X294164Y393867D01*
X294192D01*
X294229Y393858D01*
X294312Y393830D01*
X294414Y393793D01*
X294525Y393747D01*
X294636Y393682D01*
X294738Y393617D01*
X294812Y393543D01*
X294821Y393534D01*
X294840Y393506D01*
X294867Y393469D01*
X294904Y393423D01*
X294978Y393293D01*
X295015Y393229D01*
X295034Y393164D01*
Y393155D01*
X295043Y393127D01*
X295052Y393072D01*
X295061Y392979D01*
Y392923D01*
Y392849D01*
X295071Y392776D01*
Y392683D01*
X295080Y392581D01*
Y392470D01*
Y392341D01*
Y392202D01*
Y390500D01*
X293517D01*
Y392646D01*
Y392655D01*
Y392674D01*
Y392692D01*
Y392729D01*
Y392822D01*
X293508Y392923D01*
X293498Y393035D01*
X293480Y393145D01*
X293461Y393229D01*
X293452Y393266D01*
X293433Y393293D01*
Y393303D01*
X293415Y393312D01*
X293387Y393331D01*
X293350Y393358D01*
X293295Y393386D01*
X293212Y393405D01*
X293119Y393414D01*
X292999Y393423D01*
Y390500D01*
X291315D01*
Y396975D01*
X292906D01*
X293026Y396966D01*
D02*
G37*
G36*
X290168Y390500D02*
X287625D01*
X286653Y396975D01*
X288429D01*
Y396966D01*
Y396947D01*
X288439Y396910D01*
Y396855D01*
X288448Y396790D01*
X288457Y396716D01*
X288466Y396623D01*
X288475Y396531D01*
X288494Y396420D01*
X288503Y396300D01*
X288522Y396170D01*
X288531Y396031D01*
X288568Y395726D01*
X288596Y395403D01*
X288633Y395051D01*
X288670Y394690D01*
X288707Y394311D01*
X288744Y393932D01*
X288808Y393173D01*
X288836Y392794D01*
X288864Y392442D01*
Y392452D01*
Y392461D01*
Y392489D01*
X288873Y392526D01*
Y392572D01*
X288882Y392628D01*
X288892Y392757D01*
X288901Y392923D01*
X288919Y393109D01*
X288929Y393321D01*
X288947Y393562D01*
X288975Y393811D01*
X288994Y394071D01*
X289012Y394348D01*
X289040Y394635D01*
X289086Y395208D01*
X289114Y395486D01*
X289142Y395763D01*
X289262Y396975D01*
X291038D01*
X290168Y390500D01*
D02*
G37*
G36*
X268743Y404500D02*
X267264D01*
X266903Y405712D01*
X265006D01*
X264636Y404500D01*
X263434D01*
X265302Y410374D01*
X266903D01*
X268743Y404500D01*
D02*
G37*
G36*
X287438Y405665D02*
X289759D01*
Y404500D01*
X286041D01*
Y410374D01*
X287438D01*
Y405665D01*
D02*
G37*
G36*
X283220Y410364D02*
X283294D01*
X283470Y410355D01*
X283654Y410337D01*
X283849Y410300D01*
X284043Y410263D01*
X284209Y410207D01*
X284219D01*
X284228Y410198D01*
X284283Y410180D01*
X284358Y410133D01*
X284459Y410069D01*
X284570Y409985D01*
X284700Y409883D01*
X284829Y409763D01*
X284949Y409615D01*
Y409606D01*
X284968Y409597D01*
X284977Y409569D01*
X285005Y409541D01*
X285051Y409449D01*
X285116Y409329D01*
X285172Y409171D01*
X285227Y408995D01*
X285264Y408792D01*
X285273Y408570D01*
Y408561D01*
Y408552D01*
Y408496D01*
X285264Y408413D01*
X285255Y408302D01*
X285227Y408172D01*
X285199Y408024D01*
X285153Y407876D01*
X285098Y407719D01*
X285088Y407700D01*
X285070Y407654D01*
X285023Y407571D01*
X284968Y407479D01*
X284903Y407377D01*
X284820Y407266D01*
X284718Y407164D01*
X284607Y407062D01*
X284598Y407053D01*
X284552Y407025D01*
X284496Y406988D01*
X284422Y406942D01*
X284330Y406886D01*
X284228Y406840D01*
X284117Y406794D01*
X284006Y406757D01*
X283997D01*
X283950Y406748D01*
X283876Y406739D01*
X283784Y406720D01*
X283654Y406711D01*
X283488Y406692D01*
X283303Y406683D01*
X282119D01*
Y404500D01*
X280722D01*
Y410374D01*
X283155D01*
X283220Y410364D01*
D02*
G37*
G36*
X272138D02*
X272203D01*
X272370Y410355D01*
X272554Y410337D01*
X272740Y410300D01*
X272924Y410263D01*
X273100Y410207D01*
X273110D01*
X273119Y410198D01*
X273174Y410170D01*
X273257Y410133D01*
X273350Y410069D01*
X273470Y409985D01*
X273590Y409874D01*
X273711Y409745D01*
X273822Y409587D01*
Y409578D01*
X273831Y409569D01*
X273850Y409541D01*
X273868Y409514D01*
X273914Y409421D01*
X273970Y409301D01*
X274016Y409153D01*
X274062Y408986D01*
X274099Y408801D01*
X274109Y408607D01*
Y408598D01*
Y408561D01*
X274099Y408505D01*
X274090Y408431D01*
X274081Y408348D01*
X274053Y408246D01*
X274025Y408135D01*
X273979Y408015D01*
X273923Y407895D01*
X273859Y407765D01*
X273776Y407636D01*
X273683Y407515D01*
X273563Y407395D01*
X273424Y407275D01*
X273267Y407173D01*
X273091Y407081D01*
X274173Y404500D01*
X272656D01*
X271750Y406822D01*
X270769D01*
Y404500D01*
X269382D01*
Y410374D01*
X272074D01*
X272138Y410364D01*
D02*
G37*
G36*
X352598Y403681D02*
X350017D01*
X349934Y402367D01*
X349943Y402376D01*
X349952Y402386D01*
X349980Y402413D01*
X350017Y402450D01*
X350063Y402487D01*
X350128Y402524D01*
X350193Y402570D01*
X350267Y402626D01*
X350443Y402718D01*
X350664Y402793D01*
X350905Y402857D01*
X351044Y402867D01*
X351183Y402876D01*
X351256D01*
X351312Y402867D01*
X351386Y402857D01*
X351460Y402848D01*
X351553Y402830D01*
X351654Y402811D01*
X351858Y402746D01*
X351978Y402709D01*
X352089Y402654D01*
X352200Y402589D01*
X352320Y402524D01*
X352431Y402441D01*
X352533Y402349D01*
X352542Y402339D01*
X352561Y402321D01*
X352589Y402293D01*
X352625Y402256D01*
X352662Y402201D01*
X352709Y402136D01*
X352764Y402062D01*
X352820Y401978D01*
X352866Y401886D01*
X352922Y401784D01*
X353014Y401553D01*
X353042Y401424D01*
X353069Y401285D01*
X353088Y401146D01*
X353097Y400989D01*
Y400980D01*
Y400952D01*
Y400896D01*
X353088Y400841D01*
X353079Y400758D01*
X353069Y400665D01*
X353051Y400563D01*
X353023Y400461D01*
X352949Y400221D01*
X352903Y400101D01*
X352848Y399971D01*
X352773Y399842D01*
X352690Y399722D01*
X352598Y399601D01*
X352496Y399490D01*
X352487Y399481D01*
X352468Y399463D01*
X352431Y399435D01*
X352385Y399398D01*
X352320Y399352D01*
X352246Y399305D01*
X352163Y399250D01*
X352061Y399203D01*
X351950Y399148D01*
X351821Y399093D01*
X351682Y399046D01*
X351534Y399000D01*
X351367Y398963D01*
X351192Y398935D01*
X351007Y398917D01*
X350813Y398907D01*
X350729D01*
X350637Y398917D01*
X350517Y398935D01*
X350368Y398963D01*
X350193Y399000D01*
X350017Y399046D01*
X349823Y399120D01*
X349619Y399203D01*
X349425Y399314D01*
X349231Y399453D01*
X349046Y399610D01*
X348879Y399805D01*
X348722Y400027D01*
X348602Y400286D01*
X348546Y400434D01*
X348500Y400582D01*
X349786Y400776D01*
Y400767D01*
X349795Y400739D01*
X349814Y400702D01*
X349832Y400656D01*
X349887Y400526D01*
X349980Y400387D01*
X350045Y400314D01*
X350110Y400249D01*
X350193Y400184D01*
X350285Y400119D01*
X350387Y400073D01*
X350498Y400036D01*
X350627Y400008D01*
X350766Y399999D01*
X350840D01*
X350914Y400017D01*
X351016Y400036D01*
X351118Y400064D01*
X351238Y400110D01*
X351349Y400175D01*
X351451Y400267D01*
X351460Y400277D01*
X351488Y400314D01*
X351534Y400369D01*
X351580Y400443D01*
X351626Y400535D01*
X351673Y400646D01*
X351700Y400767D01*
X351710Y400896D01*
Y400915D01*
Y400961D01*
X351700Y401035D01*
X351673Y401118D01*
X351645Y401220D01*
X351599Y401331D01*
X351534Y401442D01*
X351442Y401553D01*
X351432Y401562D01*
X351395Y401599D01*
X351340Y401646D01*
X351256Y401692D01*
X351164Y401747D01*
X351044Y401784D01*
X350914Y401821D01*
X350776Y401830D01*
X350720D01*
X350683Y401821D01*
X350590Y401803D01*
X350470Y401775D01*
X350331Y401720D01*
X350193Y401636D01*
X350119Y401581D01*
X350054Y401525D01*
X349989Y401451D01*
X349934Y401368D01*
X348805Y401553D01*
X349046Y404874D01*
X352746D01*
X352598Y403681D01*
D02*
G37*
G36*
X374289Y404948D02*
X374363D01*
X374455Y404939D01*
X374557Y404920D01*
X374659Y404902D01*
X374900Y404855D01*
X375140Y404781D01*
X375390Y404670D01*
X375519Y404605D01*
X375630Y404531D01*
X375640Y404522D01*
X375658Y404513D01*
X375686Y404485D01*
X375723Y404458D01*
X375769Y404411D01*
X375824Y404356D01*
X375936Y404226D01*
X376046Y404060D01*
X376148Y403865D01*
X376185Y403755D01*
X376213Y403634D01*
X376232Y403505D01*
X376241Y403375D01*
Y403366D01*
Y403329D01*
X376232Y403283D01*
X376222Y403218D01*
X376213Y403144D01*
X376185Y403052D01*
X376157Y402959D01*
X376111Y402848D01*
X376065Y402746D01*
X375991Y402635D01*
X375917Y402524D01*
X375815Y402413D01*
X375704Y402312D01*
X375566Y402219D01*
X375408Y402136D01*
X375233Y402062D01*
X375242D01*
X375288Y402043D01*
X375343Y402025D01*
X375417Y401997D01*
X375510Y401960D01*
X375612Y401904D01*
X375713Y401840D01*
X375824Y401775D01*
X375936Y401683D01*
X376046Y401581D01*
X376139Y401470D01*
X376232Y401340D01*
X376306Y401201D01*
X376370Y401044D01*
X376407Y400869D01*
X376416Y400674D01*
Y400665D01*
Y400637D01*
Y400600D01*
X376407Y400545D01*
X376398Y400480D01*
X376389Y400406D01*
X376343Y400221D01*
X376269Y400017D01*
X376222Y399916D01*
X376157Y399805D01*
X376093Y399703D01*
X376009Y399592D01*
X375917Y399490D01*
X375806Y399398D01*
X375797Y399389D01*
X375778Y399379D01*
X375741Y399352D01*
X375695Y399324D01*
X375630Y399287D01*
X375556Y399240D01*
X375473Y399194D01*
X375371Y399157D01*
X375260Y399111D01*
X375140Y399065D01*
X375001Y399019D01*
X374853Y398981D01*
X374687Y398954D01*
X374520Y398926D01*
X374335Y398917D01*
X374141Y398907D01*
X374039D01*
X373974Y398917D01*
X373891Y398926D01*
X373790Y398935D01*
X373678Y398954D01*
X373558Y398972D01*
X373299Y399028D01*
X373031Y399120D01*
X372902Y399185D01*
X372772Y399250D01*
X372652Y399324D01*
X372532Y399416D01*
X372522Y399426D01*
X372504Y399444D01*
X372476Y399472D01*
X372439Y399509D01*
X372393Y399555D01*
X372337Y399620D01*
X372282Y399685D01*
X372217Y399768D01*
X372097Y399953D01*
X371986Y400166D01*
X371884Y400415D01*
X371847Y400545D01*
X371819Y400683D01*
X373068Y400869D01*
Y400859D01*
X373077Y400832D01*
X373087Y400785D01*
X373105Y400730D01*
X373133Y400656D01*
X373170Y400582D01*
X373216Y400498D01*
X373262Y400415D01*
X373327Y400332D01*
X373401Y400249D01*
X373484Y400175D01*
X373586Y400101D01*
X373697Y400045D01*
X373817Y399999D01*
X373956Y399971D01*
X374113Y399962D01*
X374178D01*
X374252Y399971D01*
X374344Y399990D01*
X374446Y400017D01*
X374557Y400055D01*
X374659Y400101D01*
X374761Y400175D01*
X374770Y400184D01*
X374798Y400212D01*
X374844Y400258D01*
X374890Y400323D01*
X374937Y400406D01*
X374983Y400508D01*
X375010Y400619D01*
X375020Y400748D01*
Y400767D01*
Y400813D01*
X375010Y400878D01*
X374992Y400961D01*
X374964Y401053D01*
X374918Y401146D01*
X374863Y401238D01*
X374788Y401312D01*
X374779Y401322D01*
X374742Y401340D01*
X374677Y401377D01*
X374594Y401414D01*
X374474Y401442D01*
X374317Y401479D01*
X374132Y401498D01*
X374030Y401507D01*
X373382D01*
Y402543D01*
X374076D01*
X374169Y402552D01*
X374280Y402570D01*
X374400Y402598D01*
X374520Y402635D01*
X374622Y402681D01*
X374705Y402755D01*
X374714Y402765D01*
X374733Y402793D01*
X374770Y402839D01*
X374807Y402894D01*
X374835Y402968D01*
X374872Y403052D01*
X374890Y403135D01*
X374900Y403227D01*
Y403236D01*
Y403273D01*
X374890Y403329D01*
X374872Y403394D01*
X374844Y403468D01*
X374807Y403551D01*
X374761Y403644D01*
X374687Y403727D01*
X374677Y403736D01*
X374650Y403764D01*
X374604Y403801D01*
X374539Y403838D01*
X374455Y403875D01*
X374354Y403912D01*
X374243Y403939D01*
X374104Y403949D01*
X374076D01*
X374039Y403939D01*
X373993D01*
X373938Y403930D01*
X373873Y403912D01*
X373725Y403856D01*
X373651Y403810D01*
X373577Y403764D01*
X373503Y403699D01*
X373429Y403625D01*
X373364Y403542D01*
X373308Y403440D01*
X373253Y403320D01*
X373216Y403190D01*
X371995Y403375D01*
Y403384D01*
X372004Y403403D01*
X372013Y403440D01*
X372032Y403486D01*
X372050Y403551D01*
X372069Y403616D01*
X372143Y403773D01*
X372235Y403949D01*
X372365Y404143D01*
X372522Y404328D01*
X372615Y404421D01*
X372716Y404504D01*
X372726Y404513D01*
X372744Y404522D01*
X372772Y404550D01*
X372818Y404578D01*
X372874Y404605D01*
X372948Y404652D01*
X373022Y404689D01*
X373114Y404735D01*
X373216Y404772D01*
X373318Y404818D01*
X373568Y404883D01*
X373836Y404939D01*
X373984Y404948D01*
X374141Y404957D01*
X374224D01*
X374289Y404948D01*
D02*
G37*
G36*
X382133Y399000D02*
X380653D01*
X380292Y400212D01*
X378396D01*
X378026Y399000D01*
X376823D01*
X378692Y404874D01*
X380292D01*
X382133Y399000D01*
D02*
G37*
G36*
X270783Y403365D02*
X270894Y403355D01*
X271005Y403346D01*
X271134Y403337D01*
X271403Y403300D01*
X271671Y403244D01*
X271930Y403170D01*
X272041Y403124D01*
X272152Y403068D01*
X272161D01*
X272180Y403050D01*
X272207Y403041D01*
X272245Y403013D01*
X272346Y402939D01*
X272476Y402837D01*
X272624Y402699D01*
X272781Y402532D01*
X272948Y402338D01*
X273114Y402107D01*
X273123Y402097D01*
X273132Y402079D01*
X273151Y402042D01*
X273179Y401986D01*
X273216Y401922D01*
X273253Y401848D01*
X273290Y401755D01*
X273327Y401653D01*
X273364Y401542D01*
X273401Y401413D01*
X273438Y401274D01*
X273475Y401135D01*
X273502Y400978D01*
X273521Y400811D01*
X273539Y400636D01*
Y400451D01*
Y400432D01*
Y400395D01*
X273530Y400330D01*
Y400238D01*
X273521Y400127D01*
X273502Y400007D01*
X273475Y399868D01*
X273447Y399711D01*
X273410Y399553D01*
X273355Y399378D01*
X273299Y399202D01*
X273225Y399026D01*
X273142Y398850D01*
X273040Y398675D01*
X272920Y398508D01*
X272790Y398342D01*
X272781Y398333D01*
X272753Y398305D01*
X272716Y398268D01*
X272652Y398212D01*
X272578Y398148D01*
X272485Y398074D01*
X272383Y398000D01*
X272254Y397925D01*
X272115Y397842D01*
X271967Y397768D01*
X271800Y397694D01*
X271616Y397629D01*
X271421Y397574D01*
X271209Y397537D01*
X270987Y397509D01*
X270746Y397500D01*
X268729D01*
Y403374D01*
X270700D01*
X270783Y403365D01*
D02*
G37*
G36*
X367009Y404948D02*
X367065Y404939D01*
X367203Y404920D01*
X367370Y404883D01*
X367555Y404837D01*
X367758Y404763D01*
X367962Y404670D01*
X368175Y404550D01*
X368388Y404402D01*
X368582Y404217D01*
X368684Y404106D01*
X368767Y403995D01*
X368859Y403865D01*
X368933Y403736D01*
X369007Y403588D01*
X369081Y403431D01*
X369137Y403255D01*
X369183Y403079D01*
X369229Y402876D01*
X369257Y402672D01*
X367814Y402589D01*
Y402607D01*
Y402644D01*
X367805Y402700D01*
X367795Y402783D01*
X367777Y402876D01*
X367749Y402987D01*
X367722Y403098D01*
X367675Y403218D01*
X367629Y403329D01*
X367564Y403440D01*
X367481Y403551D01*
X367389Y403644D01*
X367278Y403727D01*
X367157Y403782D01*
X367009Y403828D01*
X366843Y403838D01*
X366796D01*
X366741Y403828D01*
X366676Y403810D01*
X366593Y403782D01*
X366500Y403736D01*
X366408Y403681D01*
X366306Y403597D01*
X366205Y403496D01*
X366112Y403366D01*
X366020Y403209D01*
X365936Y403024D01*
X365872Y402802D01*
X365844Y402681D01*
X365816Y402552D01*
X365797Y402404D01*
X365779Y402256D01*
X365770Y402090D01*
Y401914D01*
Y401904D01*
Y401867D01*
Y401812D01*
X365779Y401738D01*
Y401646D01*
X365788Y401544D01*
X365797Y401433D01*
X365807Y401312D01*
X365844Y401063D01*
X365890Y400813D01*
X365927Y400702D01*
X365964Y400591D01*
X366010Y400498D01*
X366056Y400415D01*
X366075Y400397D01*
X366112Y400351D01*
X366177Y400295D01*
X366269Y400221D01*
X366389Y400147D01*
X366528Y400092D01*
X366695Y400045D01*
X366880Y400027D01*
X366917D01*
X366963Y400036D01*
X367019Y400045D01*
X367083Y400064D01*
X367157Y400082D01*
X367241Y400119D01*
X367333Y400166D01*
X367416Y400221D01*
X367509Y400295D01*
X367601Y400387D01*
X367685Y400498D01*
X367758Y400619D01*
X367823Y400767D01*
X367879Y400943D01*
X367925Y401137D01*
X369257Y401053D01*
Y401044D01*
X369248Y401007D01*
X369238Y400952D01*
X369229Y400878D01*
X369211Y400795D01*
X369183Y400693D01*
X369146Y400582D01*
X369109Y400461D01*
X369007Y400203D01*
X368942Y400064D01*
X368868Y399934D01*
X368785Y399805D01*
X368693Y399675D01*
X368591Y399564D01*
X368471Y399453D01*
X368461Y399444D01*
X368443Y399426D01*
X368406Y399407D01*
X368351Y399370D01*
X368286Y399324D01*
X368212Y399277D01*
X368128Y399231D01*
X368027Y399185D01*
X367916Y399130D01*
X367786Y399083D01*
X367657Y399037D01*
X367518Y398991D01*
X367361Y398954D01*
X367203Y398935D01*
X367037Y398917D01*
X366861Y398907D01*
X366806D01*
X366750Y398917D01*
X366667D01*
X366565Y398935D01*
X366454Y398954D01*
X366325Y398972D01*
X366186Y399009D01*
X366038Y399046D01*
X365890Y399102D01*
X365733Y399166D01*
X365566Y399240D01*
X365409Y399333D01*
X365261Y399444D01*
X365104Y399564D01*
X364965Y399703D01*
X364956Y399712D01*
X364937Y399740D01*
X364900Y399786D01*
X364854Y399851D01*
X364798Y399934D01*
X364734Y400036D01*
X364669Y400147D01*
X364604Y400286D01*
X364540Y400434D01*
X364475Y400600D01*
X364410Y400785D01*
X364354Y400980D01*
X364308Y401201D01*
X364271Y401424D01*
X364253Y401673D01*
X364244Y401932D01*
Y401951D01*
Y401988D01*
X364253Y402062D01*
Y402154D01*
X364262Y402265D01*
X364281Y402395D01*
X364299Y402543D01*
X364336Y402700D01*
X364373Y402867D01*
X364419Y403042D01*
X364475Y403227D01*
X364540Y403412D01*
X364623Y403588D01*
X364715Y403773D01*
X364826Y403939D01*
X364947Y404106D01*
X364956Y404115D01*
X364984Y404143D01*
X365020Y404189D01*
X365076Y404236D01*
X365150Y404300D01*
X365233Y404374D01*
X365335Y404448D01*
X365455Y404531D01*
X365585Y404615D01*
X365723Y404689D01*
X365881Y404763D01*
X366056Y404827D01*
X366242Y404883D01*
X366436Y404920D01*
X366649Y404948D01*
X366870Y404957D01*
X366963D01*
X367009Y404948D01*
D02*
G37*
G36*
X259554Y403365D02*
X259665Y403355D01*
X259775Y403346D01*
X259905Y403337D01*
X260173Y403300D01*
X260441Y403244D01*
X260700Y403170D01*
X260811Y403124D01*
X260923Y403068D01*
X260932D01*
X260950Y403050D01*
X260978Y403041D01*
X261015Y403013D01*
X261117Y402939D01*
X261246Y402837D01*
X261394Y402699D01*
X261551Y402532D01*
X261718Y402338D01*
X261884Y402107D01*
X261894Y402097D01*
X261903Y402079D01*
X261922Y402042D01*
X261949Y401986D01*
X261986Y401922D01*
X262023Y401848D01*
X262060Y401755D01*
X262097Y401653D01*
X262134Y401542D01*
X262171Y401413D01*
X262208Y401274D01*
X262245Y401135D01*
X262273Y400978D01*
X262292Y400811D01*
X262310Y400636D01*
Y400451D01*
Y400432D01*
Y400395D01*
X262301Y400330D01*
Y400238D01*
X262292Y400127D01*
X262273Y400007D01*
X262245Y399868D01*
X262217Y399711D01*
X262180Y399553D01*
X262125Y399378D01*
X262070Y399202D01*
X261996Y399026D01*
X261912Y398850D01*
X261810Y398675D01*
X261690Y398508D01*
X261561Y398342D01*
X261551Y398333D01*
X261524Y398305D01*
X261487Y398268D01*
X261422Y398212D01*
X261348Y398148D01*
X261256Y398074D01*
X261154Y398000D01*
X261024Y397925D01*
X260886Y397842D01*
X260737Y397768D01*
X260571Y397694D01*
X260386Y397629D01*
X260192Y397574D01*
X259979Y397537D01*
X259757Y397509D01*
X259517Y397500D01*
X257500D01*
Y403374D01*
X259470D01*
X259554Y403365D01*
D02*
G37*
G36*
X356501Y399000D02*
X355021D01*
X353273Y404874D01*
X354734D01*
X355900Y400665D01*
X357130Y404874D01*
X358277D01*
X356501Y399000D01*
D02*
G37*
G36*
X360876Y404865D02*
X360987Y404855D01*
X361099Y404846D01*
X361228Y404837D01*
X361496Y404800D01*
X361765Y404744D01*
X362023Y404670D01*
X362135Y404624D01*
X362245Y404568D01*
X362255D01*
X362273Y404550D01*
X362301Y404541D01*
X362338Y404513D01*
X362440Y404439D01*
X362569Y404337D01*
X362717Y404199D01*
X362875Y404032D01*
X363041Y403838D01*
X363208Y403607D01*
X363217Y403597D01*
X363226Y403579D01*
X363245Y403542D01*
X363272Y403486D01*
X363309Y403421D01*
X363346Y403347D01*
X363383Y403255D01*
X363420Y403153D01*
X363457Y403042D01*
X363494Y402913D01*
X363531Y402774D01*
X363568Y402635D01*
X363596Y402478D01*
X363615Y402312D01*
X363633Y402136D01*
Y401951D01*
Y401932D01*
Y401895D01*
X363624Y401830D01*
Y401738D01*
X363615Y401627D01*
X363596Y401507D01*
X363568Y401368D01*
X363541Y401211D01*
X363504Y401053D01*
X363448Y400878D01*
X363392Y400702D01*
X363318Y400526D01*
X363235Y400351D01*
X363134Y400175D01*
X363013Y400008D01*
X362884Y399842D01*
X362875Y399833D01*
X362847Y399805D01*
X362810Y399768D01*
X362745Y399712D01*
X362671Y399647D01*
X362579Y399573D01*
X362477Y399500D01*
X362347Y399426D01*
X362209Y399342D01*
X362060Y399268D01*
X361894Y399194D01*
X361709Y399130D01*
X361515Y399074D01*
X361302Y399037D01*
X361080Y399009D01*
X360840Y399000D01*
X358823D01*
Y404874D01*
X360793D01*
X360876Y404865D01*
D02*
G37*
G36*
X241973Y406364D02*
X242084Y406355D01*
X242195Y406346D01*
X242325Y406337D01*
X242593Y406300D01*
X242861Y406244D01*
X243120Y406170D01*
X243231Y406124D01*
X243342Y406069D01*
X243352D01*
X243370Y406050D01*
X243398Y406041D01*
X243435Y406013D01*
X243536Y405939D01*
X243666Y405837D01*
X243814Y405698D01*
X243971Y405532D01*
X244138Y405338D01*
X244304Y405106D01*
X244314Y405097D01*
X244323Y405079D01*
X244341Y405042D01*
X244369Y404986D01*
X244406Y404921D01*
X244443Y404847D01*
X244480Y404755D01*
X244517Y404653D01*
X244554Y404542D01*
X244591Y404413D01*
X244628Y404274D01*
X244665Y404135D01*
X244693Y403978D01*
X244711Y403812D01*
X244730Y403636D01*
Y403451D01*
Y403432D01*
Y403395D01*
X244721Y403331D01*
Y403238D01*
X244711Y403127D01*
X244693Y403007D01*
X244665Y402868D01*
X244637Y402711D01*
X244600Y402554D01*
X244545Y402378D01*
X244489Y402202D01*
X244415Y402026D01*
X244332Y401851D01*
X244230Y401675D01*
X244110Y401508D01*
X243981Y401342D01*
X243971Y401333D01*
X243944Y401305D01*
X243906Y401268D01*
X243842Y401212D01*
X243768Y401148D01*
X243675Y401074D01*
X243573Y400999D01*
X243444Y400925D01*
X243305Y400842D01*
X243157Y400768D01*
X242991Y400694D01*
X242806Y400630D01*
X242612Y400574D01*
X242399Y400537D01*
X242177Y400509D01*
X241936Y400500D01*
X239920D01*
Y406374D01*
X241890D01*
X241973Y406364D01*
D02*
G37*
G36*
X231983Y406448D02*
X232076Y406438D01*
X232177Y406429D01*
X232289Y406411D01*
X232409Y406392D01*
X232659Y406318D01*
X232797Y406281D01*
X232927Y406226D01*
X233056Y406161D01*
X233176Y406087D01*
X233297Y406004D01*
X233408Y405902D01*
X233417Y405893D01*
X233436Y405874D01*
X233463Y405847D01*
X233500Y405809D01*
X233537Y405754D01*
X233583Y405689D01*
X233639Y405615D01*
X233695Y405532D01*
X233796Y405347D01*
X233889Y405125D01*
X233916Y405005D01*
X233944Y404875D01*
X233963Y404746D01*
X233972Y404607D01*
Y404598D01*
Y404570D01*
Y404533D01*
X233963Y404478D01*
X233953Y404403D01*
X233944Y404329D01*
X233926Y404237D01*
X233898Y404135D01*
X233824Y403923D01*
X233778Y403802D01*
X233722Y403682D01*
X233658Y403562D01*
X233574Y403441D01*
X233482Y403321D01*
X233380Y403201D01*
X233371Y403192D01*
X233352Y403173D01*
X233315Y403136D01*
X233269Y403090D01*
X233195Y403034D01*
X233112Y402960D01*
X233010Y402877D01*
X232890Y402785D01*
X232760Y402674D01*
X232603Y402563D01*
X232427Y402433D01*
X232233Y402294D01*
X232011Y402146D01*
X231780Y401999D01*
X231511Y401832D01*
X231234Y401665D01*
X234055D01*
X233953Y400500D01*
X229551D01*
Y401638D01*
X229560Y401647D01*
X229588Y401665D01*
X229643Y401702D01*
X229717Y401758D01*
X229819Y401832D01*
X229939Y401915D01*
X230087Y402026D01*
X230254Y402146D01*
X230272Y402156D01*
X230309Y402183D01*
X230374Y402230D01*
X230448Y402294D01*
X230550Y402359D01*
X230670Y402452D01*
X230790Y402544D01*
X230929Y402646D01*
X231216Y402868D01*
X231502Y403109D01*
X231650Y403229D01*
X231780Y403340D01*
X231900Y403451D01*
X232011Y403562D01*
X232020Y403571D01*
X232039Y403589D01*
X232066Y403617D01*
X232094Y403654D01*
X232187Y403765D01*
X232289Y403895D01*
X232390Y404052D01*
X232483Y404228D01*
X232510Y404311D01*
X232538Y404403D01*
X232557Y404496D01*
X232566Y404579D01*
Y404598D01*
Y404635D01*
X232557Y404700D01*
X232538Y404783D01*
X232510Y404866D01*
X232473Y404958D01*
X232418Y405060D01*
X232344Y405143D01*
X232335Y405153D01*
X232307Y405181D01*
X232252Y405218D01*
X232187Y405255D01*
X232103Y405292D01*
X232002Y405329D01*
X231881Y405356D01*
X231752Y405366D01*
X231715D01*
X231669Y405356D01*
X231613Y405347D01*
X231549Y405329D01*
X231474Y405310D01*
X231391Y405273D01*
X231299Y405227D01*
X231216Y405162D01*
X231123Y405088D01*
X231040Y405005D01*
X230966Y404894D01*
X230892Y404764D01*
X230836Y404616D01*
X230790Y404440D01*
X230753Y404246D01*
X229551Y404515D01*
Y404524D01*
X229560Y404533D01*
Y404561D01*
X229569Y404598D01*
X229597Y404690D01*
X229643Y404820D01*
X229698Y404968D01*
X229782Y405125D01*
X229874Y405301D01*
X229985Y405486D01*
X230124Y405671D01*
X230281Y405847D01*
X230466Y406004D01*
X230679Y406152D01*
X230920Y406281D01*
X231188Y406374D01*
X231336Y406411D01*
X231484Y406438D01*
X231650Y406448D01*
X231817Y406457D01*
X231919D01*
X231983Y406448D01*
D02*
G37*
G36*
X227626Y401573D02*
X229255D01*
Y400500D01*
X224500D01*
Y401573D01*
X226276D01*
Y404931D01*
X226267Y404921D01*
X226230Y404903D01*
X226174Y404866D01*
X226100Y404829D01*
X226017Y404774D01*
X225915Y404718D01*
X225795Y404653D01*
X225675Y404579D01*
X225416Y404440D01*
X225148Y404292D01*
X224879Y404163D01*
X224759Y404098D01*
X224648Y404052D01*
Y405264D01*
X224667Y405273D01*
X224713Y405282D01*
X224787Y405310D01*
X224888Y405347D01*
X225009Y405393D01*
X225148Y405440D01*
X225305Y405504D01*
X225462Y405578D01*
X225795Y405754D01*
X225961Y405847D01*
X226119Y405958D01*
X226267Y406069D01*
X226406Y406189D01*
X226526Y406318D01*
X226627Y406457D01*
X227626D01*
Y401573D01*
D02*
G37*
G36*
X237598Y400500D02*
X236118D01*
X234370Y406374D01*
X235831D01*
X236997Y402165D01*
X238227Y406374D01*
X239374D01*
X237598Y400500D01*
D02*
G37*
G36*
X248106Y406448D02*
X248162Y406438D01*
X248300Y406420D01*
X248467Y406383D01*
X248652Y406337D01*
X248855Y406263D01*
X249059Y406170D01*
X249271Y406050D01*
X249484Y405902D01*
X249678Y405717D01*
X249780Y405606D01*
X249864Y405495D01*
X249956Y405366D01*
X250030Y405236D01*
X250104Y405088D01*
X250178Y404931D01*
X250234Y404755D01*
X250280Y404579D01*
X250326Y404376D01*
X250354Y404172D01*
X248911Y404089D01*
Y404108D01*
Y404144D01*
X248902Y404200D01*
X248892Y404283D01*
X248874Y404376D01*
X248846Y404487D01*
X248818Y404598D01*
X248772Y404718D01*
X248726Y404829D01*
X248661Y404940D01*
X248578Y405051D01*
X248485Y405143D01*
X248374Y405227D01*
X248254Y405282D01*
X248106Y405329D01*
X247939Y405338D01*
X247893D01*
X247838Y405329D01*
X247773Y405310D01*
X247690Y405282D01*
X247597Y405236D01*
X247505Y405181D01*
X247403Y405097D01*
X247301Y404995D01*
X247209Y404866D01*
X247116Y404709D01*
X247033Y404524D01*
X246968Y404302D01*
X246940Y404181D01*
X246913Y404052D01*
X246894Y403904D01*
X246876Y403756D01*
X246866Y403589D01*
Y403414D01*
Y403405D01*
Y403368D01*
Y403312D01*
X246876Y403238D01*
Y403146D01*
X246885Y403044D01*
X246894Y402933D01*
X246903Y402812D01*
X246940Y402563D01*
X246987Y402313D01*
X247024Y402202D01*
X247061Y402091D01*
X247107Y401999D01*
X247153Y401915D01*
X247172Y401897D01*
X247209Y401851D01*
X247273Y401795D01*
X247366Y401721D01*
X247486Y401647D01*
X247625Y401591D01*
X247792Y401545D01*
X247976Y401527D01*
X248013D01*
X248060Y401536D01*
X248115Y401545D01*
X248180Y401564D01*
X248254Y401582D01*
X248337Y401619D01*
X248430Y401665D01*
X248513Y401721D01*
X248605Y401795D01*
X248698Y401888D01*
X248781Y401999D01*
X248855Y402119D01*
X248920Y402267D01*
X248975Y402443D01*
X249022Y402637D01*
X250354Y402554D01*
Y402544D01*
X250344Y402507D01*
X250335Y402452D01*
X250326Y402378D01*
X250307Y402294D01*
X250280Y402193D01*
X250243Y402082D01*
X250206Y401962D01*
X250104Y401702D01*
X250039Y401564D01*
X249965Y401434D01*
X249882Y401305D01*
X249790Y401175D01*
X249688Y401064D01*
X249568Y400953D01*
X249558Y400944D01*
X249540Y400925D01*
X249503Y400907D01*
X249447Y400870D01*
X249382Y400824D01*
X249308Y400777D01*
X249225Y400731D01*
X249124Y400685D01*
X249012Y400630D01*
X248883Y400583D01*
X248753Y400537D01*
X248615Y400491D01*
X248458Y400454D01*
X248300Y400435D01*
X248134Y400417D01*
X247958Y400408D01*
X247902D01*
X247847Y400417D01*
X247764D01*
X247662Y400435D01*
X247551Y400454D01*
X247422Y400472D01*
X247283Y400509D01*
X247135Y400546D01*
X246987Y400602D01*
X246830Y400667D01*
X246663Y400740D01*
X246506Y400833D01*
X246358Y400944D01*
X246200Y401064D01*
X246062Y401203D01*
X246053Y401212D01*
X246034Y401240D01*
X245997Y401286D01*
X245951Y401351D01*
X245895Y401434D01*
X245830Y401536D01*
X245766Y401647D01*
X245701Y401786D01*
X245636Y401934D01*
X245571Y402100D01*
X245507Y402285D01*
X245451Y402480D01*
X245405Y402702D01*
X245368Y402923D01*
X245350Y403173D01*
X245340Y403432D01*
Y403451D01*
Y403488D01*
X245350Y403562D01*
Y403654D01*
X245359Y403765D01*
X245377Y403895D01*
X245396Y404043D01*
X245433Y404200D01*
X245470Y404366D01*
X245516Y404542D01*
X245571Y404727D01*
X245636Y404912D01*
X245720Y405088D01*
X245812Y405273D01*
X245923Y405440D01*
X246043Y405606D01*
X246053Y405615D01*
X246080Y405643D01*
X246117Y405689D01*
X246173Y405735D01*
X246247Y405800D01*
X246330Y405874D01*
X246432Y405948D01*
X246552Y406032D01*
X246681Y406115D01*
X246820Y406189D01*
X246977Y406263D01*
X247153Y406327D01*
X247338Y406383D01*
X247533Y406420D01*
X247745Y406448D01*
X247967Y406457D01*
X248060D01*
X248106Y406448D01*
D02*
G37*
%LPC*%
G36*
X259424Y402291D02*
X258851D01*
Y398601D01*
X259489D01*
X259535Y398610D01*
X259600Y398619D01*
X259674Y398628D01*
X259831Y398675D01*
X260016Y398740D01*
X260108Y398786D01*
X260201Y398832D01*
X260284Y398897D01*
X260377Y398971D01*
X260451Y399054D01*
X260525Y399156D01*
Y399165D01*
X260543Y399184D01*
X260562Y399211D01*
X260580Y399257D01*
X260608Y399313D01*
X260645Y399378D01*
X260673Y399452D01*
X260710Y399535D01*
X260774Y399729D01*
X260839Y399951D01*
X260876Y400201D01*
X260895Y400479D01*
Y400488D01*
Y400506D01*
Y400534D01*
Y400571D01*
X260886Y400673D01*
X260867Y400802D01*
X260839Y400959D01*
X260802Y401126D01*
X260756Y401293D01*
X260682Y401468D01*
Y401477D01*
X260673Y401487D01*
X260645Y401542D01*
X260599Y401625D01*
X260543Y401718D01*
X260469Y401820D01*
X260377Y401931D01*
X260275Y402023D01*
X260164Y402107D01*
X260155Y402116D01*
X260108Y402134D01*
X260044Y402162D01*
X259961Y402199D01*
X259850Y402236D01*
X259720Y402264D01*
X259581Y402282D01*
X259424Y402291D01*
D02*
G37*
G36*
X270654D02*
X270080D01*
Y398601D01*
X270718D01*
X270764Y398610D01*
X270829Y398619D01*
X270903Y398628D01*
X271060Y398675D01*
X271246Y398740D01*
X271338Y398786D01*
X271430Y398832D01*
X271514Y398897D01*
X271606Y398971D01*
X271680Y399054D01*
X271754Y399156D01*
Y399165D01*
X271773Y399184D01*
X271791Y399211D01*
X271810Y399257D01*
X271837Y399313D01*
X271874Y399378D01*
X271902Y399452D01*
X271939Y399535D01*
X272004Y399729D01*
X272069Y399951D01*
X272106Y400201D01*
X272124Y400479D01*
Y400488D01*
Y400506D01*
Y400534D01*
Y400571D01*
X272115Y400673D01*
X272096Y400802D01*
X272069Y400959D01*
X272032Y401126D01*
X271986Y401293D01*
X271912Y401468D01*
Y401477D01*
X271902Y401487D01*
X271874Y401542D01*
X271828Y401625D01*
X271773Y401718D01*
X271699Y401820D01*
X271606Y401931D01*
X271504Y402023D01*
X271393Y402107D01*
X271384Y402116D01*
X271338Y402134D01*
X271273Y402162D01*
X271190Y402199D01*
X271079Y402236D01*
X270950Y402264D01*
X270811Y402282D01*
X270654Y402291D01*
D02*
G37*
G36*
X241844Y405292D02*
X241270D01*
Y401601D01*
X241909D01*
X241955Y401610D01*
X242020Y401619D01*
X242093Y401628D01*
X242251Y401675D01*
X242436Y401740D01*
X242528Y401786D01*
X242621Y401832D01*
X242704Y401897D01*
X242796Y401971D01*
X242870Y402054D01*
X242945Y402156D01*
Y402165D01*
X242963Y402183D01*
X242982Y402211D01*
X243000Y402257D01*
X243028Y402313D01*
X243065Y402378D01*
X243092Y402452D01*
X243129Y402535D01*
X243194Y402729D01*
X243259Y402951D01*
X243296Y403201D01*
X243315Y403478D01*
Y403488D01*
Y403506D01*
Y403534D01*
Y403571D01*
X243305Y403673D01*
X243287Y403802D01*
X243259Y403960D01*
X243222Y404126D01*
X243176Y404292D01*
X243102Y404468D01*
Y404478D01*
X243092Y404487D01*
X243065Y404542D01*
X243019Y404626D01*
X242963Y404718D01*
X242889Y404820D01*
X242796Y404931D01*
X242695Y405023D01*
X242584Y405106D01*
X242575Y405116D01*
X242528Y405134D01*
X242463Y405162D01*
X242380Y405199D01*
X242269Y405236D01*
X242140Y405264D01*
X242001Y405282D01*
X241844Y405292D01*
D02*
G37*
G36*
X271741Y409319D02*
X270769D01*
Y407821D01*
X271750D01*
X271842Y407830D01*
X272037Y407849D01*
X272129Y407858D01*
X272203Y407876D01*
X272212D01*
X272240Y407886D01*
X272277Y407904D01*
X272323Y407932D01*
X272370Y407960D01*
X272434Y408006D01*
X272490Y408061D01*
X272545Y408126D01*
X272554Y408135D01*
X272573Y408163D01*
X272591Y408200D01*
X272619Y408265D01*
X272647Y408329D01*
X272675Y408403D01*
X272684Y408496D01*
X272693Y408589D01*
Y408598D01*
Y408635D01*
X272684Y408681D01*
X272675Y408737D01*
X272656Y408811D01*
X272628Y408884D01*
X272591Y408958D01*
X272545Y409032D01*
X272536Y409042D01*
X272517Y409060D01*
X272490Y409097D01*
X272453Y409134D01*
X272351Y409218D01*
X272286Y409245D01*
X272221Y409273D01*
X272212D01*
X272184Y409282D01*
X272147Y409292D01*
X272083Y409301D01*
X271990D01*
X271879Y409310D01*
X271741Y409319D01*
D02*
G37*
G36*
X379349Y403347D02*
X378720Y401294D01*
X379969D01*
X379349Y403347D01*
D02*
G37*
G36*
X360747Y403792D02*
X360174D01*
Y400101D01*
X360812D01*
X360858Y400110D01*
X360923Y400119D01*
X360997Y400129D01*
X361154Y400175D01*
X361339Y400240D01*
X361432Y400286D01*
X361524Y400332D01*
X361607Y400397D01*
X361700Y400471D01*
X361774Y400554D01*
X361848Y400656D01*
Y400665D01*
X361866Y400683D01*
X361885Y400711D01*
X361903Y400758D01*
X361931Y400813D01*
X361968Y400878D01*
X361996Y400952D01*
X362033Y401035D01*
X362098Y401229D01*
X362162Y401451D01*
X362199Y401701D01*
X362218Y401978D01*
Y401988D01*
Y402006D01*
Y402034D01*
Y402071D01*
X362209Y402173D01*
X362190Y402302D01*
X362162Y402459D01*
X362125Y402626D01*
X362079Y402793D01*
X362005Y402968D01*
Y402978D01*
X361996Y402987D01*
X361968Y403042D01*
X361922Y403125D01*
X361866Y403218D01*
X361792Y403320D01*
X361700Y403431D01*
X361598Y403523D01*
X361487Y403607D01*
X361478Y403616D01*
X361432Y403634D01*
X361367Y403662D01*
X361283Y403699D01*
X361173Y403736D01*
X361043Y403764D01*
X360904Y403782D01*
X360747Y403792D01*
D02*
G37*
G36*
X282951Y409310D02*
X282073D01*
Y407747D01*
X283044D01*
X283137Y407756D01*
X283238Y407774D01*
X283359Y407802D01*
X283479Y407849D01*
X283580Y407904D01*
X283673Y407978D01*
X283682Y407987D01*
X283710Y408024D01*
X283738Y408071D01*
X283784Y408135D01*
X283821Y408218D01*
X283849Y408311D01*
X283876Y408413D01*
X283886Y408524D01*
Y408542D01*
Y408579D01*
X283876Y408653D01*
X283858Y408727D01*
X283830Y408820D01*
X283784Y408921D01*
X283729Y409014D01*
X283654Y409097D01*
X283645Y409106D01*
X283608Y409134D01*
X283553Y409162D01*
X283479Y409208D01*
X283377Y409245D01*
X283257Y409273D01*
X283118Y409301D01*
X282951Y409310D01*
D02*
G37*
G36*
X293101Y395865D02*
X292999D01*
Y394431D01*
X293091D01*
X293156Y394441D01*
X293285Y394459D01*
X293350Y394478D01*
X293396Y394505D01*
X293406D01*
X293415Y394524D01*
X293433Y394551D01*
X293461Y394598D01*
X293480Y394662D01*
X293498Y394746D01*
X293508Y394866D01*
X293517Y395005D01*
Y395366D01*
Y395375D01*
Y395412D01*
X293508Y395467D01*
X293498Y395532D01*
X293471Y395661D01*
X293433Y395717D01*
X293396Y395763D01*
X293387Y395773D01*
X293378Y395782D01*
X293350Y395800D01*
X293304Y395819D01*
X293249Y395837D01*
X293184Y395847D01*
X293101Y395865D01*
D02*
G37*
G36*
X284637Y395532D02*
Y395523D01*
Y395514D01*
X284628Y395486D01*
Y395449D01*
X284609Y395356D01*
X284600Y395227D01*
X284581Y395070D01*
X284554Y394894D01*
X284526Y394700D01*
X284507Y394496D01*
X284479Y394274D01*
X284452Y394043D01*
X284396Y393599D01*
X284368Y393377D01*
X284350Y393173D01*
X284331Y392979D01*
X284313Y392812D01*
X284887D01*
Y392822D01*
X284877Y392859D01*
Y392923D01*
X284868Y393007D01*
X284859Y393118D01*
X284840Y393247D01*
X284831Y393395D01*
X284812Y393562D01*
X284794Y393747D01*
X284775Y393959D01*
X284748Y394181D01*
X284729Y394422D01*
X284711Y394681D01*
X284683Y394949D01*
X284665Y395236D01*
X284637Y395532D01*
D02*
G37*
G36*
X260936Y409310D02*
X260058D01*
Y407747D01*
X261029D01*
X261122Y407756D01*
X261223Y407774D01*
X261344Y407802D01*
X261464Y407849D01*
X261565Y407904D01*
X261658Y407978D01*
X261667Y407987D01*
X261695Y408024D01*
X261723Y408071D01*
X261769Y408135D01*
X261806Y408218D01*
X261834Y408311D01*
X261861Y408413D01*
X261871Y408524D01*
Y408542D01*
Y408579D01*
X261861Y408653D01*
X261843Y408727D01*
X261815Y408820D01*
X261769Y408921D01*
X261714Y409014D01*
X261639Y409097D01*
X261630Y409106D01*
X261593Y409134D01*
X261538Y409162D01*
X261464Y409208D01*
X261362Y409245D01*
X261242Y409273D01*
X261103Y409301D01*
X260936Y409310D01*
D02*
G37*
G36*
X265959Y408848D02*
X265330Y406794D01*
X266579D01*
X265959Y408848D01*
D02*
G37*
%LPD*%
D21*
X365500Y397500D02*
X381500D01*
Y387500D02*
Y397500D01*
Y377500D02*
Y387500D01*
Y367500D02*
Y377500D01*
Y357500D02*
Y367500D01*
X365500Y357500D02*
X381500D01*
X349500D02*
X365500D01*
X349500D02*
Y397500D01*
X365500D01*
X339405Y358189D02*
X346098D01*
X320902D02*
X327594D01*
X323657Y381811D02*
X327594D01*
X320902Y379055D02*
X323657Y381811D01*
X320902Y358189D02*
Y379055D01*
X339405Y381811D02*
X343342D01*
X346098Y358189D02*
Y379055D01*
X343342Y381811D02*
X346098Y379055D01*
X223500Y358500D02*
X239500D01*
X223500D02*
Y368500D01*
Y378500D01*
Y388500D01*
Y398500D01*
X239500D01*
X255500D01*
Y358500D02*
Y398500D01*
X239500Y358500D02*
X255500D01*
D26*
X275453Y378390D02*
G03*
X275453Y378390I-492J0D01*
G01*
D27*
X311622Y364713D02*
Y366287D01*
X314378Y364713D02*
Y366287D01*
X280713Y357622D02*
X282287D01*
X280713Y360378D02*
X282287D01*
X308878Y361213D02*
Y362787D01*
X306122Y361213D02*
Y362787D01*
X266453Y376425D02*
Y379575D01*
X260547Y376425D02*
Y379575D01*
X291213Y357622D02*
X292787D01*
X291213Y360378D02*
X292787D01*
X314890Y403417D02*
X318630D01*
X314890Y380583D02*
X318630D01*
X297370Y403417D02*
X301110D01*
X297370Y380583D02*
X301110D01*
X318630D02*
Y403417D01*
X297370Y380583D02*
Y403417D01*
X334425Y391547D02*
X337575D01*
X334425Y397453D02*
X337575D01*
X334425Y400047D02*
X337575D01*
X334425Y405953D02*
X337575D01*
X277520Y376520D02*
Y378980D01*
X279980D01*
X290020D02*
X292480D01*
Y376520D02*
Y378980D01*
Y364020D02*
Y366480D01*
X290020Y364020D02*
X292480D01*
X277520D02*
Y366480D01*
Y364020D02*
X279980D01*
D28*
X341499Y385999D02*
X341000Y386499D01*
X340000D01*
X339500Y385999D01*
Y384000D01*
X340000Y383500D01*
X341000D01*
X341499Y384000D01*
X344498Y386499D02*
X343499Y385999D01*
X342499Y384999D01*
Y384000D01*
X342999Y383500D01*
X343999D01*
X344498Y384000D01*
Y384500D01*
X343999Y384999D01*
X342499D01*
X311500Y357500D02*
Y360499D01*
X313000D01*
X313499Y359999D01*
Y358999D01*
X313000Y358500D01*
X311500D01*
X312500D02*
X313499Y357500D01*
X316498D02*
X314499D01*
X316498Y359499D01*
Y359999D01*
X315999Y360499D01*
X314999D01*
X314499Y359999D01*
D29*
X260499Y389499D02*
X259999Y389999D01*
X259000D01*
X258500Y389499D01*
Y387500D01*
X259000Y387000D01*
X259999D01*
X260499Y387500D01*
X261499Y387000D02*
X262499D01*
X261999D01*
Y389999D01*
X261499Y389499D01*
X270999Y383499D02*
X270499Y383999D01*
X269500D01*
X269000Y383499D01*
Y381500D01*
X269500Y381000D01*
X270499D01*
X270999Y381500D01*
X273998Y381000D02*
X271999D01*
X273998Y382999D01*
Y383499D01*
X273499Y383999D01*
X272499D01*
X271999Y383499D01*
X323499Y405999D02*
X323000Y406499D01*
X322000D01*
X321500Y405999D01*
Y404000D01*
X322000Y403500D01*
X323000D01*
X323499Y404000D01*
X324499Y405999D02*
X324999Y406499D01*
X325998D01*
X326498Y405999D01*
Y405499D01*
X325998Y404999D01*
X325499D01*
X325998D01*
X326498Y404500D01*
Y404000D01*
X325998Y403500D01*
X324999D01*
X324499Y404000D01*
X323999Y396999D02*
X323499Y397499D01*
X322500D01*
X322000Y396999D01*
Y395000D01*
X322500Y394500D01*
X323499D01*
X323999Y395000D01*
X326499Y394500D02*
Y397499D01*
X324999Y396000D01*
X326998D01*
X306499Y375499D02*
X305999Y375999D01*
X305000D01*
X304500Y375499D01*
Y373500D01*
X305000Y373000D01*
X305999D01*
X306499Y373500D01*
X309498Y375999D02*
X307499D01*
Y374500D01*
X308499Y374999D01*
X308998D01*
X309498Y374500D01*
Y373500D01*
X308998Y373000D01*
X307999D01*
X307499Y373500D01*
X315000Y408499D02*
Y405500D01*
X316999D01*
X317999D02*
X318999D01*
X318499D01*
Y408499D01*
X317999Y407999D01*
X293000Y353000D02*
Y355999D01*
X294499D01*
X294999Y355499D01*
Y354500D01*
X294499Y354000D01*
X293000D01*
X294000D02*
X294999Y353000D01*
X295999D02*
X296999D01*
X296499D01*
Y355999D01*
X295999Y355499D01*
X281000Y353000D02*
Y355999D01*
X282500D01*
X282999Y355499D01*
Y354500D01*
X282500Y354000D01*
X281000D01*
X282000D02*
X282999Y353000D01*
X283999Y355999D02*
X285998D01*
Y355499D01*
X283999Y353500D01*
Y353000D01*
X305500Y353500D02*
Y356499D01*
X306999D01*
X307499Y355999D01*
Y354999D01*
X306999Y354500D01*
X305500D01*
X306500D02*
X307499Y353500D01*
X308499Y355999D02*
X308999Y356499D01*
X309998D01*
X310498Y355999D01*
Y355499D01*
X309998Y354999D01*
X310498Y354500D01*
Y354000D01*
X309998Y353500D01*
X308999D01*
X308499Y354000D01*
Y354500D01*
X308999Y354999D01*
X308499Y355499D01*
Y355999D01*
X308999Y354999D02*
X309998D01*
X283000Y384499D02*
Y382000D01*
X283500Y381500D01*
X284500D01*
X284999Y382000D01*
Y384499D01*
X285999Y381500D02*
X286999D01*
X286499D01*
Y384499D01*
X285999Y383999D01*
M02*
