%FSLAX25Y25*%
%MOIN*%
G70*
G01*
G75*
G04 Layer_Physical_Order=2*
G04 Layer_Color=16711680*
%ADD10R,0.05512X0.13386*%
%ADD11R,0.03543X0.02756*%
%ADD12R,0.02756X0.03543*%
%ADD13R,0.03543X0.03150*%
%ADD14R,0.06693X0.04331*%
%ADD15R,0.10630X0.10039*%
%ADD16R,0.04331X0.06693*%
%ADD17O,0.03150X0.00984*%
%ADD18O,0.00984X0.03150*%
%ADD19R,0.06811X0.06811*%
%ADD20C,0.03000*%
%ADD21C,0.01000*%
%ADD22C,0.02000*%
%ADD23O,0.11811X0.07874*%
%ADD24C,0.03000*%
%ADD25C,0.02500*%
G36*
X382379Y352121D02*
X223122D01*
Y410378D01*
X382379D01*
Y352121D01*
D02*
G37*
%LPC*%
G36*
X300000Y402141D02*
X299181Y401978D01*
X298486Y401514D01*
X298022Y400819D01*
X297859Y400000D01*
X298022Y399181D01*
X298486Y398486D01*
X298879Y398224D01*
Y393000D01*
X298878Y393000D01*
X298964Y392571D01*
X299207Y392207D01*
X301378Y390035D01*
Y360476D01*
X301166Y360334D01*
X300757Y359722D01*
X300647Y359167D01*
X300159Y359215D01*
Y359215D01*
X300149Y359216D01*
Y374000D01*
X299959Y374459D01*
X299500Y374649D01*
X293000D01*
X292541Y374459D01*
X292351Y374000D01*
Y367149D01*
X274649D01*
Y371321D01*
X274459Y371781D01*
X274000Y371971D01*
X268000D01*
X267541Y371781D01*
X267351Y371321D01*
Y359000D01*
X267541Y358541D01*
X268000Y358351D01*
X299500D01*
X299959Y358541D01*
X300133Y358962D01*
X300622Y358913D01*
D01*
X300631Y358913D01*
X300757Y358278D01*
X301166Y357666D01*
X301778Y357257D01*
X302500Y357114D01*
X303222Y357257D01*
X303834Y357666D01*
X304243Y358278D01*
X304386Y359000D01*
X304243Y359722D01*
X303834Y360334D01*
X303622Y360476D01*
Y390500D01*
X303536Y390929D01*
X303293Y391293D01*
X303293Y391293D01*
X301121Y393465D01*
Y398224D01*
X301514Y398486D01*
X301978Y399181D01*
X302141Y400000D01*
X301978Y400819D01*
X301514Y401514D01*
X300819Y401978D01*
X300000Y402141D01*
D02*
G37*
G36*
X241469Y373076D02*
X237531D01*
X236347Y372920D01*
X235243Y372463D01*
X234296Y371736D01*
X233568Y370788D01*
X233111Y369684D01*
X232955Y368500D01*
X233111Y367316D01*
X233568Y366212D01*
X234296Y365264D01*
X235243Y364537D01*
X236347Y364080D01*
X237531Y363924D01*
X241469D01*
X242653Y364080D01*
X243757Y364537D01*
X244704Y365264D01*
X245432Y366212D01*
X245889Y367316D01*
X246045Y368500D01*
X245889Y369684D01*
X245432Y370788D01*
X244704Y371736D01*
X243757Y372463D01*
X242653Y372920D01*
X241469Y373076D01*
D02*
G37*
G36*
X367469Y392076D02*
X363531D01*
X362347Y391920D01*
X361243Y391463D01*
X360296Y390736D01*
X359568Y389788D01*
X359111Y388684D01*
X358955Y387500D01*
X359111Y386316D01*
X359568Y385212D01*
X360296Y384264D01*
X361243Y383537D01*
X362347Y383080D01*
X363531Y382924D01*
X367469D01*
X368653Y383080D01*
X369757Y383537D01*
X370704Y384264D01*
X371432Y385212D01*
X371889Y386316D01*
X372045Y387500D01*
X371889Y388684D01*
X371432Y389788D01*
X370704Y390736D01*
X369757Y391463D01*
X368653Y391920D01*
X367469Y392076D01*
D02*
G37*
G36*
X295000Y386149D02*
X275000D01*
X274541Y385959D01*
X274351Y385500D01*
Y377500D01*
X274541Y377041D01*
X275000Y376851D01*
X295000D01*
X295459Y377041D01*
X295649Y377500D01*
Y385500D01*
X295459Y385959D01*
X295000Y386149D01*
D02*
G37*
%LPD*%
G36*
Y377500D02*
X275000D01*
Y385500D01*
X295000D01*
Y377500D01*
D02*
G37*
G36*
X299500Y359000D02*
X268000D01*
Y371321D01*
X274000D01*
Y366500D01*
X293000D01*
Y374000D01*
X299500D01*
Y359000D01*
D02*
G37*
D21*
X302500D02*
Y390500D01*
X300000Y393000D02*
X302500Y390500D01*
X300000Y393000D02*
Y400000D01*
D23*
X365500Y387500D02*
D03*
Y367500D02*
D03*
X239500Y368500D02*
D03*
Y388500D02*
D03*
D24*
X345500Y403000D02*
D03*
Y394500D02*
D03*
X300000Y400000D02*
D03*
D25*
X295000Y372484D02*
D03*
X298000Y372500D02*
D03*
X269500Y369500D02*
D03*
X272500D02*
D03*
X269500Y366500D02*
D03*
X272500D02*
D03*
X269500Y363500D02*
D03*
X272500D02*
D03*
Y360500D02*
D03*
X269500D02*
D03*
X280000Y380500D02*
D03*
X277000D02*
D03*
X280000Y383500D02*
D03*
X277000D02*
D03*
X290000D02*
D03*
X293000D02*
D03*
X290000Y380500D02*
D03*
X293000D02*
D03*
X302500Y359000D02*
D03*
X274000Y356000D02*
D03*
X278500Y355000D02*
D03*
X283000Y373500D02*
D03*
X287000D02*
D03*
X283000Y369500D02*
D03*
X287000D02*
D03*
X282000Y388000D02*
D03*
X285000D02*
D03*
X276000D02*
D03*
X279000D02*
D03*
X273000D02*
D03*
X270000D02*
D03*
X267000D02*
D03*
X264000D02*
D03*
M02*
